<svg width="33" height="33" viewBox="0 0 33 33" fill="none" xmlns="http://www.w3.org/2000/svg">
<path d="M28.875 26.125V23.8618C28.875 22.7374 28.1904 21.7262 27.1463 21.3085L24.3494 20.1898C23.0214 19.6586 21.508 20.234 20.8684 21.5132L20.625 22C20.625 22 17.1875 21.3125 14.4375 18.5625C11.6875 15.8125 11 12.375 11 12.375L11.4868 12.1316C12.766 11.492 13.3414 9.97856 12.8102 8.65061L11.6915 5.85368C11.2738 4.80962 10.2626 4.125 9.13816 4.125H6.875C5.35622 4.125 4.125 5.35622 4.125 6.875C4.125 19.0253 13.9747 28.875 26.125 28.875C27.6438 28.875 28.875 27.6438 28.875 26.125Z" fill="#FDCE00"/>
</svg>
