<svg width="34" height="34" viewBox="0 0 34 34" fill="none" xmlns="http://www.w3.org/2000/svg">
<path d="M19.5587 15.7188C19.5587 16.4782 19.3335 17.2207 18.9116 17.8521C18.4896 18.4836 17.8899 18.9758 17.1883 19.2664C16.4866 19.5571 15.7145 19.6331 14.9696 19.485C14.2247 19.3368 13.5405 18.9711 13.0035 18.434C12.4664 17.897 12.1007 17.2128 11.9525 16.4679C11.8044 15.723 11.8804 14.9509 12.1711 14.2492C12.4617 13.5476 12.9539 12.9479 13.5854 12.5259C14.2168 12.104 14.9593 11.8787 15.7188 11.8787C16.7362 11.8819 17.7111 12.2875 18.4305 13.007C19.15 13.7264 19.5556 14.7013 19.5587 15.7188ZM27.7188 10.4387V20.9987C27.7188 22.781 27.0108 24.4903 25.7505 25.7505C24.4903 27.0108 22.781 27.7188 20.9987 27.7188H10.4387C8.6565 27.7188 6.94724 27.0108 5.68699 25.7505C4.42675 24.4903 3.71875 22.781 3.71875 20.9987V10.4387C3.71875 8.6565 4.42675 6.94724 5.68699 5.68699C6.94724 4.42675 8.6565 3.71875 10.4387 3.71875H20.9987C22.781 3.71875 24.4903 4.42675 25.7505 5.68699C27.0108 6.94724 27.7188 8.6565 27.7188 10.4387ZM21.4788 15.7188C21.4788 14.5795 21.1409 13.4659 20.508 12.5187C19.8751 11.5714 18.9755 10.8332 17.923 10.3972C16.8705 9.96124 15.7124 9.84718 14.595 10.0694C13.4777 10.2917 12.4514 10.8403 11.6458 11.6458C10.8403 12.4514 10.2917 13.4777 10.0694 14.595C9.84718 15.7124 9.96124 16.8705 10.3972 17.923C10.8332 18.9755 11.5714 19.8751 12.5187 20.508C13.4659 21.1409 14.5795 21.4788 15.7188 21.4788C17.2464 21.4788 18.7115 20.8719 19.7917 19.7917C20.8719 18.7115 21.4788 17.2464 21.4788 15.7188ZM23.3988 9.47875C23.3988 9.19394 23.3143 8.91554 23.1561 8.67873C22.9978 8.44192 22.7729 8.25735 22.5098 8.14836C22.2467 8.03937 21.9572 8.01086 21.6778 8.06642C21.3985 8.12198 21.1419 8.25913 20.9405 8.46052C20.7391 8.6619 20.602 8.91849 20.5464 9.19782C20.4909 9.47715 20.5194 9.76669 20.6284 10.0298C20.7374 10.2929 20.9219 10.5178 21.1587 10.6761C21.3955 10.8343 21.6739 10.9187 21.9587 10.9187C22.3407 10.9187 22.7069 10.767 22.977 10.497C23.247 10.2269 23.3988 9.86066 23.3988 9.47875Z" fill="#EFEFEF"/>
</svg>
