<svg width="26" height="26" viewBox="0 0 26 26" fill="none" xmlns="http://www.w3.org/2000/svg">
<path d="M2.5842 10.9166H18.4033L11.5254 4.06808C11.133 3.67611 10.9125 3.14447 10.9125 2.59014C10.9125 2.0358 11.133 1.50416 11.5254 1.11219C11.9179 0.72021 12.4502 0.5 13.0052 0.5C13.5602 0.5 14.0925 0.72021 14.485 1.11219L24.906 11.5203C25.0957 11.7182 25.2445 11.9517 25.3437 12.2072C25.5521 12.714 25.5521 13.2824 25.3437 13.7892C25.2445 14.0448 25.0957 14.2782 24.906 14.4762L14.485 24.8843C14.2912 25.0794 14.0607 25.2342 13.8067 25.3399C13.5528 25.4456 13.2803 25.5 13.0052 25.5C12.7301 25.5 12.4576 25.4456 12.2037 25.3399C11.9497 25.2342 11.7192 25.0794 11.5254 24.8843C11.3301 24.6907 11.175 24.4605 11.0692 24.2069C10.9634 23.9532 10.9089 23.6811 10.9089 23.4063C10.9089 23.1315 10.9634 22.8594 11.0692 22.6058C11.175 22.3521 11.3301 22.1219 11.5254 21.9284L18.4033 15.0798H2.5842C2.03144 15.0798 1.50131 14.8605 1.11045 14.4701C0.719584 14.0798 0.5 13.5503 0.5 12.9982C0.5 12.4461 0.719584 11.9167 1.11045 11.5263C1.50131 11.1359 2.03144 10.9166 2.5842 10.9166Z" fill="#0E0E0E"/>
</svg>
